<?xml version="1.0" encoding="utf-8"?>
<!-- Generator: Adobe Illustrator 16.0.0, SVG Export Plug-In . SVG Version: 6.00 Build 0)  -->
<!DOCTYPE svg PUBLIC "-//W3C//DTD SVG 1.1//EN" "http://www.w3.org/Graphics/SVG/1.1/DTD/svg11.dtd">
<svg version="1.1" id="Layer_1" xmlns="http://www.w3.org/2000/svg" xmlns:xlink="http://www.w3.org/1999/xlink" x="0px" y="0px"
	 width="200px" height="200px" viewBox="0 0 200 200" enable-background="new 0 0 200 200" xml:space="preserve">
<rect fill="#FFFFFF" stroke="#000000" stroke-miterlimit="10" width="200" height="200"/>
<g>
	<g>
		<path d="M85.742,43.073c22.777-8.526,45.975-3.138,62.923,14.214c8.181,8.375,14.022,18.896,17.905,29.873
			c3.839,10.851,6.351,22.734,2.189,33.812c-4.05,10.788-13.58,19.127-22.559,25.838c-8.979,6.709-18.885,13.053-29.034,17.812
			c-11.778,5.522-23.003,4.808-34.004-1.957c-11.127-6.842-21.299-16.537-29.724-26.46C38.866,119.043,32.323,97.419,42.39,76.293
			c4.577-9.605,12.618-18.011,20.562-24.932c4.833-4.21,9.869-6.382,16.098-7.657c4.745-0.972,9.07-2.054,13.111-4.823
			c1.584-1.086,0.086-3.688-1.515-2.591c-5.562,3.812-12.065,4.102-18.35,5.984c-5.808,1.74-10.488,5.948-14.827,10
			c-9.134,8.531-17.008,18.758-20.994,30.693c-8,23.958,5.854,46.881,22.236,63.395c8.303,8.369,17.938,16.896,28.646,22.025
			c9.141,4.379,18.77,3.733,28.061,0.213c10.311-3.908,20.041-10.615,29.064-16.877c8.434-5.851,16.35-12.584,22.338-20.979
			c15.377-21.558,2.938-52.135-11.774-70.729c-17.065-21.566-44.33-29.481-70.102-19.834C83.15,40.852,83.927,43.752,85.742,43.073
			L85.742,43.073z"/>
	</g>
</g>
<g>
	<g>
		<path d="M74.485,129.79c9.994,4.472,22.201,11.405,33.479,8.231c11.552-3.25,15.147-18.182,25.611-23.383
			c1.731-0.861,0.213-3.449-1.515-2.591c-8.979,4.463-12.799,13.968-20.111,20.306c-10.014,8.674-26.05-0.726-35.95-5.153
			C74.249,126.417,72.722,129.002,74.485,129.79L74.485,129.79z"/>
	</g>
</g>
<g>
	<g>
		<path d="M68.571,91.558c4.698-1.741,11.943-3.486,16.541-0.518c1.958,1.264-0.862,3.594-1.832,4.417
			c-2.693,2.283-6.096,3.803-9.541,4.477c-4,0.783-9.262-0.243-11.698-3.813c-2.775-4.068,3.545-4.626,6.131-4.509
			c1.935,0.087,1.926-2.913,0-3c-4.448-0.201-11.585,1.53-9.445,7.558c2.03,5.719,9.503,7.492,14.832,6.805
			c4.41-0.568,8.383-2.679,11.842-5.396c2.259-1.775,4.24-4.511,2.881-7.403c-1.172-2.496-4.784-3.127-7.172-3.434
			c-4.445-0.57-9.181,0.384-13.337,1.924C65.976,89.331,66.752,92.231,68.571,91.558L68.571,91.558z"/>
	</g>
</g>
<g>
	<g>
		<path d="M105.545,84.541c6.064,0.06,19.988,2.177,13.109,10.901c-2.857,3.623-7.248,2.684-10.26-0.112
			c-3.115-2.891-4.344-7.627-2.564-11.532c0.796-1.747-1.789-3.273-2.59-1.515c-2.338,5.132-1.076,10.521,2.566,14.688
			c3.289,3.761,9.201,5.407,13.367,2.095c4.03-3.205,6.438-9.047,2.279-13.084c-3.885-3.771-10.799-4.391-15.909-4.441
			C103.609,81.521,103.611,84.521,105.545,84.541L105.545,84.541z"/>
	</g>
</g>
<g>
	<g>
		<path d="M77.662,129.941c18.105-4.162,35.195-11.924,53.535-15.151c1.902-0.335,1.095-3.226-0.797-2.894
			c-18.342,3.229-35.43,10.99-53.536,15.151C74.979,127.482,75.778,130.374,77.662,129.941L77.662,129.941z"/>
	</g>
</g>
<g>
	<g>
		<path d="M96.056,77.416c11.491,1.973,23.15,2.087,34.742,3.084c1.929,0.166,1.912-2.835,0-3
			c-11.319-0.974-22.723-1.05-33.944-2.977C94.962,74.199,94.152,77.089,96.056,77.416L96.056,77.416z"/>
	</g>
</g>
<g>
	<g>
		<path d="M46.348,91.558c11.5-3.298,22.041-8.948,32.681-14.292c1.729-0.869,0.21-3.457-1.514-2.591
			c-10.411,5.229-20.713,10.763-31.965,13.99C43.694,89.197,44.484,92.092,46.348,91.558L46.348,91.558z"/>
	</g>
</g>
</svg>
